<svg width="168" height="55" viewBox="0 0 168 55" fill="none" xmlns="http://www.w3.org/2000/svg">
<rect y="0.5" width="168" height="54" rx="27" fill="#B20021" fill-opacity="0.05"/>
<path d="M52.992 36.5V19.58H63.84V21.572H55.488V26.996H63.288V28.988H55.488V36.5H52.992ZM70.0764 36.716C69.0044 36.716 68.0684 36.468 67.2684 35.972C66.4684 35.476 65.8444 34.756 65.3964 33.812C64.9644 32.868 64.7484 31.748 64.7484 30.452C64.7484 29.14 64.9644 28.02 65.3964 27.092C65.8444 26.164 66.4684 25.452 67.2684 24.956C68.0684 24.444 69.0044 24.188 70.0764 24.188C71.1324 24.188 72.0524 24.452 72.8364 24.98C73.6204 25.508 74.1404 26.228 74.3964 27.14H74.1324L74.3724 24.404H76.7244C76.6764 24.9 76.6284 25.396 76.5804 25.892C76.5484 26.372 76.5324 26.844 76.5324 27.308V36.5H74.1084V33.812H74.3724C74.1164 34.708 73.5884 35.42 72.7884 35.948C72.0044 36.46 71.1004 36.716 70.0764 36.716ZM70.6764 34.82C71.7164 34.82 72.5484 34.452 73.1724 33.716C73.8124 32.98 74.1324 31.892 74.1324 30.452C74.1324 29.012 73.8124 27.932 73.1724 27.212C72.5484 26.476 71.7164 26.108 70.6764 26.108C69.6204 26.108 68.7724 26.476 68.1324 27.212C67.5084 27.932 67.1964 29.012 67.1964 30.452C67.1964 31.892 67.5084 32.98 68.1324 33.716C68.7564 34.452 69.6044 34.82 70.6764 34.82ZM79.5894 36.5V24.404H82.0134V36.5H79.5894ZM79.3974 21.884V19.364H82.2054V21.884H79.3974ZM85.086 36.5V18.836H87.51V36.5H85.086ZM96.1746 36.716C94.2226 36.716 92.6866 36.164 91.5666 35.06C90.4466 33.956 89.8866 32.428 89.8866 30.476C89.8866 29.212 90.1266 28.108 90.6066 27.164C91.1026 26.22 91.7826 25.492 92.6466 24.98C93.5266 24.452 94.5426 24.188 95.6946 24.188C96.8306 24.188 97.7826 24.428 98.5506 24.908C99.3186 25.388 99.9026 26.068 100.303 26.948C100.703 27.812 100.903 28.836 100.903 30.02V30.788H91.7826V29.396H99.2466L98.8386 29.708C98.8386 28.508 98.5666 27.58 98.0226 26.924C97.4946 26.252 96.7266 25.916 95.7186 25.916C94.5986 25.916 93.7346 26.308 93.1266 27.092C92.5186 27.86 92.2146 28.924 92.2146 30.284V30.524C92.2146 31.948 92.5586 33.02 93.2466 33.74C93.9506 34.46 94.9426 34.82 96.2226 34.82C96.9266 34.82 97.5826 34.724 98.1906 34.532C98.8146 34.324 99.4066 33.988 99.9666 33.524L100.759 35.18C100.199 35.676 99.5186 36.06 98.7186 36.332C97.9186 36.588 97.0706 36.716 96.1746 36.716ZM107.836 36.716C106.78 36.716 105.844 36.468 105.028 35.972C104.228 35.476 103.604 34.756 103.156 33.812C102.724 32.868 102.508 31.748 102.508 30.452C102.508 29.14 102.724 28.02 103.156 27.092C103.604 26.164 104.228 25.452 105.028 24.956C105.844 24.444 106.78 24.188 107.836 24.188C108.876 24.188 109.788 24.452 110.572 24.98C111.372 25.492 111.9 26.196 112.156 27.092H111.868V18.836H114.292V36.5H111.892V33.764H112.18C111.908 34.676 111.38 35.396 110.596 35.924C109.812 36.452 108.892 36.716 107.836 36.716ZM108.436 34.82C109.476 34.82 110.316 34.452 110.956 33.716C111.596 32.98 111.916 31.892 111.916 30.452C111.916 29.012 111.596 27.932 110.956 27.212C110.316 26.476 109.476 26.108 108.436 26.108C107.38 26.108 106.532 26.476 105.892 27.212C105.268 27.932 104.956 29.012 104.956 30.452C104.956 31.892 105.268 32.98 105.892 33.716C106.532 34.452 107.38 34.82 108.436 34.82Z" fill="#B20021"/>
</svg>
