<svg width="168" height="55" viewBox="0 0 168 55" fill="none" xmlns="http://www.w3.org/2000/svg">
<rect y="0.5" width="168" height="54" rx="27" fill="#FFFFA3"/>
<path d="M24.992 36.5V19.58H27.488V36.5H24.992ZM30.7648 36.5V27.308C30.7648 26.844 30.7408 26.372 30.6928 25.892C30.6608 25.396 30.6208 24.9 30.5727 24.404H32.9248L33.1408 26.948H32.8528C33.2208 26.052 33.7888 25.372 34.5568 24.908C35.3248 24.428 36.2128 24.188 37.2208 24.188C38.6448 24.188 39.7168 24.58 40.4368 25.364C41.1728 26.148 41.5408 27.364 41.5408 29.012V36.5H39.1168V29.156C39.1168 28.084 38.9008 27.316 38.4688 26.852C38.0528 26.372 37.4128 26.132 36.5488 26.132C35.5248 26.132 34.7088 26.452 34.1008 27.092C33.4928 27.716 33.1888 28.564 33.1888 29.636V36.5H30.7648ZM50.6457 36.5V19.58H57.8218C59.6298 19.58 61.0138 20.02 61.9737 20.9C62.9498 21.764 63.4378 22.964 63.4378 24.5C63.4378 26.036 62.9498 27.244 61.9737 28.124C61.0138 29.004 59.6298 29.444 57.8218 29.444H53.1417V36.5H50.6457ZM53.1417 27.452H57.5577C58.6938 27.452 59.5498 27.196 60.1257 26.684C60.7017 26.172 60.9897 25.444 60.9897 24.5C60.9897 23.572 60.7017 22.852 60.1257 22.34C59.5498 21.828 58.6938 21.572 57.5577 21.572H53.1417V27.452ZM65.4643 36.5V27.404C65.4643 26.908 65.4483 26.412 65.4163 25.916C65.4003 25.404 65.3683 24.9 65.3203 24.404H67.6723L67.9363 27.524H67.5523C67.7123 26.772 67.9843 26.148 68.3683 25.652C68.7523 25.156 69.2163 24.788 69.7603 24.548C70.3203 24.308 70.9043 24.188 71.5123 24.188C71.7683 24.188 71.9843 24.204 72.1603 24.236C72.3363 24.252 72.5123 24.284 72.6883 24.332L72.6643 26.492C72.3923 26.38 72.1523 26.316 71.9443 26.3C71.7523 26.268 71.5123 26.252 71.2243 26.252C70.5203 26.252 69.9203 26.412 69.4243 26.732C68.9283 27.036 68.5523 27.452 68.2963 27.98C68.0403 28.508 67.9123 29.076 67.9123 29.684V36.5H65.4643ZM79.0991 36.716C77.8991 36.716 76.8591 36.468 75.9791 35.972C75.0991 35.46 74.4191 34.74 73.9391 33.812C73.4591 32.868 73.2191 31.748 73.2191 30.452C73.2191 29.156 73.4591 28.044 73.9391 27.116C74.4191 26.172 75.0991 25.452 75.9791 24.956C76.8591 24.444 77.8991 24.188 79.0991 24.188C80.2991 24.188 81.3391 24.444 82.2191 24.956C83.1151 25.452 83.8031 26.172 84.2831 27.116C84.7791 28.044 85.0271 29.156 85.0271 30.452C85.0271 31.748 84.7791 32.868 84.2831 33.812C83.8031 34.74 83.1151 35.46 82.2191 35.972C81.3391 36.468 80.2991 36.716 79.0991 36.716ZM79.0991 34.82C80.1551 34.82 80.9951 34.452 81.6191 33.716C82.2431 32.98 82.5551 31.892 82.5551 30.452C82.5551 29.012 82.2431 27.932 81.6191 27.212C80.9951 26.476 80.1551 26.108 79.0991 26.108C78.0591 26.108 77.2271 26.476 76.6031 27.212C75.9791 27.932 75.6671 29.012 75.6671 30.452C75.6671 31.892 75.9711 32.98 76.5791 33.716C77.2031 34.452 78.0431 34.82 79.0991 34.82ZM92.8284 41.876C91.7404 41.876 90.7484 41.748 89.8524 41.492C88.9724 41.236 88.1804 40.852 87.4764 40.34L88.0764 38.564C88.5724 38.9 89.0604 39.164 89.5404 39.356C90.0204 39.564 90.5244 39.716 91.0524 39.812C91.5804 39.908 92.1244 39.956 92.6844 39.956C93.8364 39.956 94.7004 39.66 95.2764 39.068C95.8684 38.492 96.1644 37.652 96.1644 36.548V33.308H96.4044C96.1484 34.204 95.6204 34.916 94.8204 35.444C94.0364 35.956 93.1244 36.212 92.0844 36.212C90.9804 36.212 90.0204 35.972 89.2044 35.492C88.4044 34.996 87.7804 34.3 87.3324 33.404C86.9004 32.492 86.6844 31.42 86.6844 30.188C86.6844 28.956 86.9004 27.892 87.3324 26.996C87.7804 26.1 88.4044 25.412 89.2044 24.932C90.0204 24.436 90.9804 24.188 92.0844 24.188C93.1404 24.188 94.0524 24.452 94.8204 24.98C95.6044 25.492 96.1244 26.196 96.3804 27.092L96.1644 26.9L96.3804 24.404H98.7324C98.6684 24.9 98.6204 25.396 98.5884 25.892C98.5564 26.372 98.5404 26.844 98.5404 27.308V36.26C98.5404 38.084 98.0524 39.476 97.0764 40.436C96.1164 41.396 94.7004 41.876 92.8284 41.876ZM92.6604 34.316C93.7164 34.316 94.5564 33.956 95.1804 33.236C95.8204 32.516 96.1404 31.5 96.1404 30.188C96.1404 28.876 95.8204 27.868 95.1804 27.164C94.5564 26.46 93.7164 26.108 92.6604 26.108C91.5724 26.108 90.7084 26.46 90.0684 27.164C89.4444 27.868 89.1324 28.876 89.1324 30.188C89.1324 31.5 89.4444 32.516 90.0684 33.236C90.7084 33.956 91.5724 34.316 92.6604 34.316ZM101.548 36.5V27.404C101.548 26.908 101.532 26.412 101.5 25.916C101.484 25.404 101.452 24.9 101.404 24.404H103.756L104.02 27.524H103.636C103.796 26.772 104.068 26.148 104.452 25.652C104.836 25.156 105.3 24.788 105.844 24.548C106.404 24.308 106.988 24.188 107.596 24.188C107.852 24.188 108.068 24.204 108.244 24.236C108.42 24.252 108.596 24.284 108.772 24.332L108.748 26.492C108.476 26.38 108.236 26.316 108.028 26.3C107.836 26.268 107.596 26.252 107.308 26.252C106.604 26.252 106.004 26.412 105.508 26.732C105.012 27.036 104.636 27.452 104.38 27.98C104.124 28.508 103.996 29.076 103.996 29.684V36.5H101.548ZM115.591 36.716C113.639 36.716 112.103 36.164 110.983 35.06C109.863 33.956 109.303 32.428 109.303 30.476C109.303 29.212 109.543 28.108 110.023 27.164C110.519 26.22 111.199 25.492 112.063 24.98C112.943 24.452 113.959 24.188 115.111 24.188C116.247 24.188 117.199 24.428 117.967 24.908C118.735 25.388 119.319 26.068 119.719 26.948C120.119 27.812 120.319 28.836 120.319 30.02V30.788H111.199V29.396H118.663L118.255 29.708C118.255 28.508 117.983 27.58 117.439 26.924C116.911 26.252 116.143 25.916 115.135 25.916C114.015 25.916 113.151 26.308 112.543 27.092C111.935 27.86 111.631 28.924 111.631 30.284V30.524C111.631 31.948 111.975 33.02 112.663 33.74C113.367 34.46 114.359 34.82 115.639 34.82C116.343 34.82 116.999 34.724 117.607 34.532C118.231 34.324 118.823 33.988 119.383 33.524L120.175 35.18C119.615 35.676 118.935 36.06 118.135 36.332C117.335 36.588 116.487 36.716 115.591 36.716ZM126.772 36.716C125.764 36.716 124.836 36.588 123.988 36.332C123.14 36.076 122.436 35.716 121.876 35.252L122.62 33.596C123.212 34.044 123.868 34.38 124.588 34.604C125.308 34.828 126.044 34.94 126.796 34.94C127.676 34.94 128.34 34.788 128.788 34.484C129.236 34.164 129.46 33.732 129.46 33.188C129.46 32.772 129.316 32.436 129.028 32.18C128.756 31.924 128.3 31.732 127.66 31.604L125.356 31.148C124.332 30.924 123.556 30.54 123.028 29.996C122.5 29.452 122.236 28.756 122.236 27.908C122.236 27.188 122.428 26.548 122.812 25.988C123.212 25.428 123.772 24.988 124.492 24.668C125.228 24.348 126.084 24.188 127.06 24.188C127.956 24.188 128.788 24.316 129.556 24.572C130.324 24.828 130.964 25.196 131.476 25.676L130.708 27.284C130.212 26.868 129.652 26.548 129.028 26.324C128.404 26.084 127.772 25.964 127.132 25.964C126.236 25.964 125.572 26.132 125.14 26.468C124.708 26.804 124.492 27.244 124.492 27.788C124.492 28.204 124.62 28.548 124.876 28.82C125.148 29.076 125.572 29.276 126.148 29.42L128.452 29.876C129.54 30.1 130.356 30.468 130.9 30.98C131.444 31.492 131.716 32.18 131.716 33.044C131.716 33.796 131.508 34.452 131.092 35.012C130.676 35.572 130.1 35.996 129.364 36.284C128.628 36.572 127.764 36.716 126.772 36.716ZM138.245 36.716C137.237 36.716 136.309 36.588 135.461 36.332C134.613 36.076 133.909 35.716 133.349 35.252L134.093 33.596C134.685 34.044 135.341 34.38 136.061 34.604C136.781 34.828 137.517 34.94 138.269 34.94C139.149 34.94 139.813 34.788 140.261 34.484C140.709 34.164 140.933 33.732 140.933 33.188C140.933 32.772 140.789 32.436 140.501 32.18C140.229 31.924 139.773 31.732 139.133 31.604L136.829 31.148C135.805 30.924 135.029 30.54 134.501 29.996C133.973 29.452 133.709 28.756 133.709 27.908C133.709 27.188 133.901 26.548 134.285 25.988C134.685 25.428 135.245 24.988 135.965 24.668C136.701 24.348 137.557 24.188 138.533 24.188C139.429 24.188 140.261 24.316 141.029 24.572C141.797 24.828 142.437 25.196 142.949 25.676L142.181 27.284C141.685 26.868 141.125 26.548 140.501 26.324C139.877 26.084 139.245 25.964 138.605 25.964C137.709 25.964 137.045 26.132 136.613 26.468C136.181 26.804 135.965 27.244 135.965 27.788C135.965 28.204 136.093 28.548 136.349 28.82C136.621 29.076 137.045 29.276 137.621 29.42L139.925 29.876C141.013 30.1 141.829 30.468 142.373 30.98C142.917 31.492 143.189 32.18 143.189 33.044C143.189 33.796 142.981 34.452 142.565 35.012C142.149 35.572 141.573 35.996 140.837 36.284C140.101 36.572 139.237 36.716 138.245 36.716Z" fill="#797151"/>
</svg>
