<svg width="168" height="55" viewBox="0 0 168 55" fill="none" xmlns="http://www.w3.org/2000/svg">
<rect y="0.5" width="168" height="54" rx="27" fill="#06D6A0" fill-opacity="0.05"/>
<path d="M34.704 36.716C33.344 36.716 32.112 36.548 31.008 36.212C29.904 35.86 28.944 35.364 28.128 34.724L28.968 32.756C29.512 33.172 30.072 33.516 30.648 33.788C31.24 34.06 31.864 34.268 32.52 34.412C33.192 34.54 33.92 34.604 34.704 34.604C36.048 34.604 37.032 34.364 37.656 33.884C38.296 33.404 38.616 32.772 38.616 31.988C38.616 31.316 38.392 30.796 37.944 30.428C37.512 30.06 36.744 29.764 35.64 29.54L33.024 29.012C31.472 28.692 30.312 28.172 29.544 27.452C28.792 26.716 28.416 25.716 28.416 24.452C28.416 23.428 28.688 22.532 29.232 21.764C29.776 20.996 30.528 20.404 31.488 19.988C32.464 19.572 33.6 19.364 34.896 19.364C36.096 19.364 37.2 19.54 38.208 19.892C39.216 20.228 40.064 20.732 40.752 21.404L39.936 23.3C39.216 22.676 38.448 22.22 37.632 21.932C36.816 21.628 35.888 21.476 34.848 21.476C33.616 21.476 32.648 21.732 31.944 22.244C31.256 22.756 30.912 23.452 30.912 24.332C30.912 25.036 31.128 25.588 31.56 25.988C32.008 26.388 32.744 26.692 33.768 26.9L36.384 27.404C38 27.74 39.192 28.26 39.96 28.964C40.728 29.652 41.112 30.604 41.112 31.82C41.112 32.796 40.848 33.652 40.32 34.388C39.808 35.124 39.072 35.7 38.112 36.116C37.152 36.516 36.016 36.716 34.704 36.716ZM47.7795 36.716C46.3235 36.716 45.2275 36.324 44.4915 35.54C43.7715 34.74 43.4115 33.516 43.4115 31.868V24.404H45.8355V31.82C45.8355 32.828 46.0435 33.572 46.4595 34.052C46.8755 34.532 47.5075 34.772 48.3555 34.772C49.3155 34.772 50.0915 34.452 50.6835 33.812C51.2755 33.172 51.5715 32.324 51.5715 31.268V24.404H53.9955V36.5H51.6435V33.908H51.9555C51.6195 34.804 51.0835 35.5 50.3475 35.996C49.6115 36.476 48.7555 36.716 47.7795 36.716ZM62.37 36.716C61.154 36.716 60.09 36.468 59.178 35.972C58.282 35.46 57.586 34.732 57.09 33.788C56.61 32.828 56.37 31.692 56.37 30.38C56.37 29.084 56.618 27.972 57.114 27.044C57.61 26.116 58.306 25.412 59.202 24.932C60.098 24.436 61.154 24.188 62.37 24.188C63.154 24.188 63.914 24.324 64.65 24.596C65.386 24.852 65.994 25.22 66.474 25.7L65.682 27.404C65.234 26.972 64.73 26.652 64.17 26.444C63.61 26.22 63.066 26.108 62.538 26.108C61.386 26.108 60.482 26.476 59.826 27.212C59.17 27.948 58.842 29.012 58.842 30.404C58.842 31.812 59.17 32.892 59.826 33.644C60.482 34.396 61.386 34.772 62.538 34.772C63.05 34.772 63.586 34.676 64.146 34.484C64.706 34.276 65.218 33.948 65.682 33.5L66.474 35.204C65.978 35.684 65.354 36.06 64.602 36.332C63.866 36.588 63.122 36.716 62.37 36.716ZM73.6322 36.716C72.4162 36.716 71.3522 36.468 70.4402 35.972C69.5442 35.46 68.8482 34.732 68.3522 33.788C67.8722 32.828 67.6322 31.692 67.6322 30.38C67.6322 29.084 67.8802 27.972 68.3762 27.044C68.8722 26.116 69.5682 25.412 70.4642 24.932C71.3602 24.436 72.4162 24.188 73.6322 24.188C74.4162 24.188 75.1762 24.324 75.9122 24.596C76.6482 24.852 77.2562 25.22 77.7362 25.7L76.9442 27.404C76.4962 26.972 75.9922 26.652 75.4322 26.444C74.8722 26.22 74.3282 26.108 73.8002 26.108C72.6482 26.108 71.7442 26.476 71.0882 27.212C70.4322 27.948 70.1042 29.012 70.1042 30.404C70.1042 31.812 70.4322 32.892 71.0882 33.644C71.7442 34.396 72.6482 34.772 73.8002 34.772C74.3122 34.772 74.8482 34.676 75.4082 34.484C75.9682 34.276 76.4802 33.948 76.9442 33.5L77.7362 35.204C77.2402 35.684 76.6162 36.06 75.8642 36.332C75.1282 36.588 74.3842 36.716 73.6322 36.716ZM85.1824 36.716C83.2304 36.716 81.6944 36.164 80.5744 35.06C79.4544 33.956 78.8944 32.428 78.8944 30.476C78.8944 29.212 79.1344 28.108 79.6144 27.164C80.1104 26.22 80.7904 25.492 81.6544 24.98C82.5344 24.452 83.5504 24.188 84.7024 24.188C85.8384 24.188 86.7904 24.428 87.5584 24.908C88.3264 25.388 88.9104 26.068 89.3104 26.948C89.7104 27.812 89.9104 28.836 89.9104 30.02V30.788H80.7904V29.396H88.2544L87.8464 29.708C87.8464 28.508 87.5744 27.58 87.0304 26.924C86.5024 26.252 85.7344 25.916 84.7264 25.916C83.6064 25.916 82.7424 26.308 82.1344 27.092C81.5264 27.86 81.2224 28.924 81.2224 30.284V30.524C81.2224 31.948 81.5664 33.02 82.2544 33.74C82.9584 34.46 83.9504 34.82 85.2304 34.82C85.9344 34.82 86.5904 34.724 87.1984 34.532C87.8224 34.324 88.4144 33.988 88.9744 33.524L89.7664 35.18C89.2064 35.676 88.5264 36.06 87.7264 36.332C86.9264 36.588 86.0784 36.716 85.1824 36.716ZM96.3639 36.716C95.3559 36.716 94.4279 36.588 93.5799 36.332C92.7319 36.076 92.0279 35.716 91.4679 35.252L92.2119 33.596C92.8039 34.044 93.4599 34.38 94.1799 34.604C94.8999 34.828 95.6359 34.94 96.3879 34.94C97.2679 34.94 97.9319 34.788 98.3799 34.484C98.8279 34.164 99.0519 33.732 99.0519 33.188C99.0519 32.772 98.9079 32.436 98.6199 32.18C98.3479 31.924 97.8919 31.732 97.2519 31.604L94.9479 31.148C93.9239 30.924 93.1479 30.54 92.6199 29.996C92.0919 29.452 91.8279 28.756 91.8279 27.908C91.8279 27.188 92.0199 26.548 92.4039 25.988C92.8039 25.428 93.3639 24.988 94.0839 24.668C94.8199 24.348 95.6759 24.188 96.6519 24.188C97.5479 24.188 98.3799 24.316 99.1479 24.572C99.9159 24.828 100.556 25.196 101.068 25.676L100.3 27.284C99.8039 26.868 99.2439 26.548 98.6199 26.324C97.9959 26.084 97.3639 25.964 96.7239 25.964C95.8279 25.964 95.1639 26.132 94.7319 26.468C94.2999 26.804 94.0839 27.244 94.0839 27.788C94.0839 28.204 94.2119 28.548 94.4679 28.82C94.7399 29.076 95.1639 29.276 95.7399 29.42L98.0439 29.876C99.1319 30.1 99.9479 30.468 100.492 30.98C101.036 31.492 101.308 32.18 101.308 33.044C101.308 33.796 101.1 34.452 100.684 35.012C100.268 35.572 99.6919 35.996 98.9559 36.284C98.2199 36.572 97.3559 36.716 96.3639 36.716ZM107.837 36.716C106.829 36.716 105.901 36.588 105.053 36.332C104.205 36.076 103.501 35.716 102.941 35.252L103.685 33.596C104.277 34.044 104.933 34.38 105.653 34.604C106.373 34.828 107.109 34.94 107.861 34.94C108.741 34.94 109.405 34.788 109.853 34.484C110.301 34.164 110.525 33.732 110.525 33.188C110.525 32.772 110.381 32.436 110.093 32.18C109.821 31.924 109.365 31.732 108.725 31.604L106.421 31.148C105.397 30.924 104.621 30.54 104.093 29.996C103.565 29.452 103.301 28.756 103.301 27.908C103.301 27.188 103.493 26.548 103.877 25.988C104.277 25.428 104.837 24.988 105.557 24.668C106.293 24.348 107.149 24.188 108.125 24.188C109.021 24.188 109.853 24.316 110.621 24.572C111.389 24.828 112.029 25.196 112.541 25.676L111.773 27.284C111.277 26.868 110.717 26.548 110.093 26.324C109.469 26.084 108.837 25.964 108.197 25.964C107.301 25.964 106.637 26.132 106.205 26.468C105.773 26.804 105.557 27.244 105.557 27.788C105.557 28.204 105.685 28.548 105.941 28.82C106.213 29.076 106.637 29.276 107.213 29.42L109.517 29.876C110.605 30.1 111.421 30.468 111.965 30.98C112.509 31.492 112.781 32.18 112.781 33.044C112.781 33.796 112.573 34.452 112.157 35.012C111.741 35.572 111.165 35.996 110.429 36.284C109.693 36.572 108.829 36.716 107.837 36.716ZM115.878 36.5V26.276H113.526V24.404H116.55L115.878 25.028V23.108C115.878 21.684 116.238 20.604 116.958 19.868C117.678 19.116 118.734 18.74 120.126 18.74C120.462 18.74 120.814 18.764 121.182 18.812C121.55 18.86 121.854 18.94 122.094 19.052V21.02C121.902 20.94 121.662 20.876 121.374 20.828C121.102 20.764 120.822 20.732 120.534 20.732C120.07 20.732 119.67 20.828 119.334 21.02C118.998 21.196 118.734 21.468 118.542 21.836C118.366 22.204 118.278 22.676 118.278 23.252V24.884L117.918 24.404H121.566V26.276H118.302V36.5H115.878ZM127.412 36.716C125.956 36.716 124.86 36.324 124.124 35.54C123.404 34.74 123.044 33.516 123.044 31.868V24.404H125.468V31.82C125.468 32.828 125.676 33.572 126.092 34.052C126.508 34.532 127.14 34.772 127.988 34.772C128.948 34.772 129.724 34.452 130.316 33.812C130.908 33.172 131.204 32.324 131.204 31.268V24.404H133.628V36.5H131.276V33.908H131.588C131.252 34.804 130.716 35.5 129.98 35.996C129.244 36.476 128.388 36.716 127.412 36.716ZM136.698 36.5V18.836H139.122V36.5H136.698Z" fill="#2F4858"/>
</svg>
